REM DIRINDEX 1\3,1\4,1\5,1\6,1\2\7,1\2\8,1\2\9,1\10
REM DIRNAME cjc056,folder01,folder02,folder03,folder04,folder05,folder06,folder07,folder08,folder09
TITLE ""
FILE "1-05 Level 1-038-049.mp3" MP3
  TRACK 01 AUDIO
    TITLE "0:"
    INDEX 01 00:00:00
  TRACK 02 AUDIO
    TITLE "7:cjc056_0124"
    INDEX 01 00:00:05
  TRACK 03 AUDIO
    TITLE "0:"
    INDEX 01 00:01:05
  TRACK 04 AUDIO
    TITLE "8:cjc056_0125"
    INDEX 01 00:01:21
  TRACK 05 AUDIO
    TITLE "0:"
    INDEX 01 00:02:38
  TRACK 06 AUDIO
    TITLE "9:cjc056_0126"
    INDEX 01 00:02:49
  TRACK 07 AUDIO
    TITLE "0:"
    INDEX 01 00:04:19
  TRACK 08 AUDIO
    TITLE "7:cjc056_0127"
    INDEX 01 00:04:74
  TRACK 09 AUDIO
    TITLE "0:"
    INDEX 01 00:06:10
  TRACK 10 AUDIO
    TITLE "8:cjc056_0128"
    INDEX 01 00:06:24
  TRACK 11 AUDIO
    TITLE "0:"
    INDEX 01 00:07:58
  TRACK 12 AUDIO
    TITLE "9:cjc056_0129"
    INDEX 01 00:07:72
  TRACK 13 AUDIO
    TITLE "0:"
    INDEX 01 00:09:69
  TRACK 14 AUDIO
    TITLE "7:cjc056_0130"
    INDEX 01 00:10:47
  TRACK 15 AUDIO
    TITLE "0:"
    INDEX 01 00:11:56
  TRACK 16 AUDIO
    TITLE "8:cjc056_0131"
    INDEX 01 00:11:66
  TRACK 17 AUDIO
    TITLE "0:"
    INDEX 01 00:12:61
  TRACK 18 AUDIO
    TITLE "9:cjc056_0132"
    INDEX 01 00:12:73
  TRACK 19 AUDIO
    TITLE "0:"
    INDEX 01 00:14:47
  TRACK 20 AUDIO
    TITLE "7:cjc056_0133"
    INDEX 01 00:15:23
  TRACK 21 AUDIO
    TITLE "0:"
    INDEX 01 00:16:20
  TRACK 22 AUDIO
    TITLE "8:cjc056_0134"
    INDEX 01 00:16:34
  TRACK 23 AUDIO
    TITLE "0:"
    INDEX 01 00:18:03
  TRACK 24 AUDIO
    TITLE "9:cjc056_0135"
    INDEX 01 00:18:17
  TRACK 25 AUDIO
    TITLE "0:"
    INDEX 01 00:19:52
  TRACK 26 AUDIO
    TITLE "7:cjc056_0136"
    INDEX 01 00:20:30
  TRACK 27 AUDIO
    TITLE "0:"
    INDEX 01 00:21:33
  TRACK 28 AUDIO
    TITLE "8:cjc056_0137"
    INDEX 01 00:21:47
  TRACK 29 AUDIO
    TITLE "0:"
    INDEX 01 00:22:72
  TRACK 30 AUDIO
    TITLE "9:cjc056_0138"
    INDEX 01 00:23:10
  TRACK 31 AUDIO
    TITLE "0:"
    INDEX 01 00:24:69
  TRACK 32 AUDIO
    TITLE "7:cjc056_0139"
    INDEX 01 00:25:45
  TRACK 33 AUDIO
    TITLE "0:"
    INDEX 01 00:26:52
  TRACK 34 AUDIO
    TITLE "8:cjc056_0140"
    INDEX 01 00:26:66
  TRACK 35 AUDIO
    TITLE "0:"
    INDEX 01 00:28:00
  TRACK 36 AUDIO
    TITLE "9:cjc056_0141"
    INDEX 01 00:28:13
  TRACK 37 AUDIO
    TITLE "0:"
    INDEX 01 00:29:52
  TRACK 38 AUDIO
    TITLE "7:cjc056_0142"
    INDEX 01 00:30:28
  TRACK 39 AUDIO
    TITLE "0:"
    INDEX 01 00:31:37
  TRACK 40 AUDIO
    TITLE "8:cjc056_0143"
    INDEX 01 00:31:51
  TRACK 41 AUDIO
    TITLE "0:"
    INDEX 01 00:32:43
  TRACK 42 AUDIO
    TITLE "9:cjc056_0144"
    INDEX 01 00:32:54
  TRACK 43 AUDIO
    TITLE "0:"
    INDEX 01 00:34:59
  TRACK 44 AUDIO
    TITLE "7:cjc056_0145"
    INDEX 01 00:35:33
  TRACK 45 AUDIO
    TITLE "0:"
    INDEX 01 00:36:48
  TRACK 46 AUDIO
    TITLE "8:cjc056_0146"
    INDEX 01 00:36:62
  TRACK 47 AUDIO
    TITLE "0:"
    INDEX 01 00:37:67
  TRACK 48 AUDIO
    TITLE "9:cjc056_0147"
    INDEX 01 00:38:06
  TRACK 49 AUDIO
    TITLE "0:"
    INDEX 01 00:39:58
  TRACK 50 AUDIO
    TITLE "7:cjc056_0148"
    INDEX 01 00:40:36
  TRACK 51 AUDIO
    TITLE "0:"
    INDEX 01 00:41:45
  TRACK 52 AUDIO
    TITLE "8:cjc056_0149"
    INDEX 01 00:41:59
  TRACK 53 AUDIO
    TITLE "0:"
    INDEX 01 00:43:07
  TRACK 54 AUDIO
    TITLE "9:cjc056_0150"
    INDEX 01 00:43:21
  TRACK 55 AUDIO
    TITLE "0:"
    INDEX 01 00:45:00
  TRACK 56 AUDIO
    TITLE "7:cjc056_0151"
    INDEX 01 00:45:51
  TRACK 57 AUDIO
    TITLE "0:"
    INDEX 01 00:46:60
  TRACK 58 AUDIO
    TITLE "8:cjc056_0152"
    INDEX 01 00:46:74
  TRACK 59 AUDIO
    TITLE "0:"
    INDEX 01 00:47:68
  TRACK 60 AUDIO
    TITLE "9:cjc056_0153"
    INDEX 01 00:48:06
  TRACK 61 AUDIO
    TITLE "0:"
    INDEX 01 00:49:49
  TRACK 62 AUDIO
    TITLE "7:cjc056_0154"
    INDEX 01 00:50:27
  TRACK 63 AUDIO
    TITLE "0:"
    INDEX 01 00:51:36
  TRACK 64 AUDIO
    TITLE "8:cjc056_0155"
    INDEX 01 00:51:52
  TRACK 65 AUDIO
    TITLE "0:"
    INDEX 01 00:52:57
  TRACK 66 AUDIO
    TITLE "9:cjc056_0156"
    INDEX 01 00:52:69
  TRACK 67 AUDIO
    TITLE "0:"
    INDEX 01 00:55:48
  TRACK 68 AUDIO
    TITLE "7:cjc056_0157"
    INDEX 01 00:56:24
  TRACK 69 AUDIO
    TITLE "0:"
    INDEX 01 00:57:45
  TRACK 70 AUDIO
    TITLE "8:cjc056_0158"
    INDEX 01 00:57:58
  TRACK 71 AUDIO
    TITLE "0:"
    INDEX 01 00:58:66
  TRACK 72 AUDIO
    TITLE "9:cjc056_0159"
    INDEX 01 00:59:04
  TRACK 73 AUDIO
    TITLE "0:"
    INDEX 01 01:00:66
